<?xml version="1.0" encoding="UTF-8" standalone="no"?>
<!-- Generator: Adobe Illustrator 18.0.0, SVG Export Plug-In . SVG Version: 6.00 Build 0)  -->

<svg
   xmlns:dc="http://purl.org/dc/elements/1.1/"
   xmlns:cc="http://creativecommons.org/ns#"
   xmlns:rdf="http://www.w3.org/1999/02/22-rdf-syntax-ns#"
   xmlns:svg="http://www.w3.org/2000/svg"
   xmlns="http://www.w3.org/2000/svg"
   xmlns:sodipodi="http://sodipodi.sourceforge.net/DTD/sodipodi-0.dtd"
   xmlns:inkscape="http://www.inkscape.org/namespaces/inkscape"
   version="1.1"
   id="Capa_1"
   x="0px"
   y="0px"
   viewBox="0 0 54 54"
   style="enable-background:new 0 0 54 54;;opacity:1"
   xml:space="preserve"
   sodipodi:docname="up-arrow.svg"
   inkscape:version="0.92.0 r15299"><sodipodi:namedview
     pagecolor="#ffffff"
     bordercolor="#666666"
     borderopacity="1"
     objecttolerance="10"
     gridtolerance="10"
     guidetolerance="10"
     inkscape:pageopacity="0"
     inkscape:pageshadow="2"
     inkscape:window-width="1366"
     inkscape:window-height="745"
     id="namedview43"
     showgrid="false"
     inkscape:zoom="4.3703704"
     inkscape:cx="1.9449153"
     inkscape:cy="27"
     inkscape:window-x="-8"
     inkscape:window-y="-8"
     inkscape:window-maximized="1"
     inkscape:current-layer="Capa_1" /><metadata
     id="metadata47"><rdf:RDF><cc:Work
         rdf:about=""><dc:format>image/svg+xml</dc:format><dc:type
           rdf:resource="http://purl.org/dc/dcmitype/StillImage" /></cc:Work></rdf:RDF></metadata><defs
     id="defs45" /><g
     id="g10"><g
       id="g6"><path
         id="path2"
         d="M53,27L53,27c0,14.359-11.641,26-26,26h0C12.641,53,1,41.359,1,27v0C1,12.641,12.641,1,27,1h0    C41.359,1,53,12.641,53,27z"
         style="fill:#ffba6f;;opacity:1" /><path
         id="path4"
         d="M27,54C12.112,54,0,41.888,0,27S12.112,0,27,0s27,12.112,27,27S41.888,54,27,54z M27,2    C13.215,2,2,13.215,2,27s11.215,25,25,25s25-11.215,25-25S40.785,2,27,2z"
         style="fill:#ffba6f;;opacity:1" /></g><path
       id="path8"
       d="M39,32.706c-0.256,0-0.512-0.098-0.707-0.293L27,21.12L15.707,32.413   c-0.391,0.391-1.023,0.391-1.414,0s-0.391-1.023,0-1.414l11.498-11.498c0.666-0.666,1.752-0.666,2.418,0l11.498,11.498   c0.391,0.391,0.391,1.023,0,1.414C39.512,32.608,39.256,32.706,39,32.706z"
       style="fill:#ffffff;;opacity:1" /></g><g
     id="g12" /><g
     id="g14" /><g
     id="g16" /><g
     id="g18" /><g
     id="g20" /><g
     id="g22" /><g
     id="g24" /><g
     id="g26" /><g
     id="g28" /><g
     id="g30" /><g
     id="g32" /><g
     id="g34" /><g
     id="g36" /><g
     id="g38" /><g
     id="g40" /><g
     inkscape:label="Layer 1"
     id="layer1"
     inkscape:groupmode="layer" /></svg>